Coordinates
version=1
nRows=8
nColumns=40
inDegrees=yes

Units are S.I. units (second, meters, Newtons, ...)
Angles are in degrees.

endheader
time	pelvis_tilt	pelvis_list	pelvis_rotation	pelvis_tx	pelvis_ty	pelvis_tz	hip_flexion_r	hip_adduction_r	hip_rotation_r	knee_angle_r	knee_angle_r_beta	ankle_angle_r	subtalar_angle_r	mtp_angle_r	hip_flexion_l	hip_adduction_l	hip_rotation_l	knee_angle_l	knee_angle_l_beta	ankle_angle_l	subtalar_angle_l	mtp_angle_l	lumbar_extension	lumbar_bending	lumbar_rotation	arm_flex_r	arm_add_r	arm_rot_r	elbow_flex_r	pro_sup_r	wrist_flex_r	wrist_dev_r	arm_flex_l	arm_add_l	arm_rot_l	elbow_flex_l	pro_sup_l	wrist_flex_l	wrist_dev_l
      0.75000000	     -2.15630894	      3.51968277	     -2.40703239	     -1.04097751	      0.94662710	     -0.93405495	     -4.53199895	     -3.91158655	    -19.58928956	    -14.14488039	     -0.24687474	     10.32080866	      5.11232361	    -14.05221997	     23.07637096	      4.21755388	     26.72874935	     -6.65033685	     -0.11607027	     -7.06203997	     -1.07174857	     10.70833523	     -8.24821638	     -4.57161192	      5.42210726	     14.10442861	    -12.64725624	     -6.91859786	     27.59027091	     89.95437384	      0.00000000	      0.00000000	     -6.66804082	     12.04998598	      3.76117496	     14.74859243	     89.95437384	      0.00000000	      0.00000000
      0.76000000	     -2.22018167	      3.45276129	     -2.64041811	     -1.03268048	      0.94513313	     -0.93486334	     -4.88778205	     -4.02221499	    -19.50421966	    -14.44274709	     -0.25207349	     10.26485244	      4.99924886	    -13.89653178	     23.47639758	      4.41331400	     26.46325352	     -6.78387016	     -0.11840087	     -6.96262538	     -1.03443256	     10.55344459	     -8.08751037	     -4.56159867	      5.46184743	     13.94520292	    -12.53179671	     -6.88109414	     27.68260462	     89.95437384	      0.00000000	      0.00000000	     -6.93833843	     12.03515791	      3.72116393	     14.78533887	     89.95437384	      0.00000000	      0.00000000
      0.77000000	     -1.90330110	      3.16376740	     -2.87724893	     -1.02404909	      0.94443193	     -0.93593166	     -5.94687051	     -3.88138252	    -19.50891087	    -14.14209602	     -0.24682614	     10.51470207	      5.71653828	    -14.08706094	     23.26720151	      4.72423693	     25.83724389	     -6.84883885	     -0.11953479	     -6.56490391	     -1.01051423	     10.22095548	     -8.36107159	     -4.28216295	      5.66163597	     13.95503179	    -12.45291042	     -7.23713558	     27.32448172	     89.95437384	      0.00000000	      0.00000000	     -6.87235448	     11.93752534	      3.23394362	     14.42348765	     89.95437384	      0.00000000	      0.00000000
      0.78000000	     -1.87038504	      3.08821402	     -3.06554152	     -1.01530012	      0.94317079	     -0.93713472	     -6.51517848	     -3.99880580	    -19.49356159	    -14.25238981	     -0.24875113	     10.62488119	      5.75579995	    -13.97578731	     23.50026075	      4.88448130	     25.40046988	     -7.40932172	     -0.12931706	     -6.44967041	     -0.75745181	      9.98523219	     -8.26565198	     -4.24188919	      5.82278541	     13.67801879	    -12.40231474	     -7.33801836	     27.25282933	     89.95437384	      0.00000000	      0.00000000	     -7.24860182	     11.93885072	      3.25980051	     14.87658647	     89.95437384	      0.00000000	      0.00000000
      0.79000000	     -1.59875421	      3.00719094	     -3.12088108	     -1.00633903	      0.94229026	     -0.93863847	     -7.41552716	     -4.10949857	    -19.50201890	    -14.30336194	     -0.24964076	     10.71321993	      6.16411418	    -13.98401806	     23.52026517	      4.98410413	     24.71032300	     -8.30805687	     -0.14500295	     -6.10394587	     -0.28749260	      9.66746352	     -8.47979417	     -4.21236467	      5.70718823	     13.59310879	    -12.22816907	     -7.55751412	     26.95482817	     89.95437384	      0.00000000	      0.00000000	     -6.95571495	     11.90225478	      2.71843894	     14.03363436	     89.95437384	      0.00000000	      0.00000000
      0.80000000	     -1.40062879	      2.91209748	     -3.15607780	     -0.99708082	      0.94133136	     -0.94027574	     -8.25443442	     -4.24341586	    -19.80561129	    -14.32740215	     -0.25006034	     10.75141198	      6.64307015	    -13.96253442	     23.52896256	      5.04302837	     23.87719452	     -9.22238682	     -0.16096101	     -5.64149231	      0.24273779	      9.30779630	     -8.55698877	     -4.14543784	      5.67781325	     13.32618170	    -12.06840221	     -8.00598014	     26.73647919	     89.95437384	      0.00000000	      0.00000000	     -7.10394066	     11.91513982	      2.36190059	     14.10151891	     89.95437384	      0.00000000	      0.00000000
      0.81000000	     -1.27506831	      3.12176467	     -3.13807694	     -0.98754721	      0.94034374	     -0.94256098	     -8.87375767	     -4.94841077	    -20.94781933	    -14.73285952	     -0.25713691	     10.73334643	      8.47165865	    -14.88148655	     23.34286388	      4.52870658	     22.54247743	     -9.64374306	     -0.16831507	     -5.35582322	      1.70685392	      8.50477244	     -8.49702637	     -4.37370019	      5.77615101	     12.80057739	    -11.95676972	     -8.66568301	     26.62834286	     89.95437384	      0.00000000	      0.00000000	     -7.20647483	     12.06662120	      1.05210682	     14.28137555	     89.95437384	      0.00000000	      0.00000000
      0.82000000	     -1.14448162	      3.17971823	     -3.14746899	     -0.97816522	      0.93948824	     -0.94465236	     -9.51677739	     -5.26667210	    -20.90033945	    -15.05637656	     -0.26278334	     10.61120518	      8.35057543	    -14.73700726	     23.32171616	      4.37913417	     21.85804519	    -10.64407604	     -0.18577417	     -5.16148852	      1.84047981	      8.22430698	     -8.51801703	     -4.45691855	      5.66746634	     12.44443278	    -11.83462745	     -8.79969708	     26.46320331	     89.95437384	      0.00000000	      0.00000000	     -7.17325678	     12.04185286	      0.93756131	     14.05640092	     89.95437384	      0.00000000	      0.00000000
